<?xml version="1.0" encoding="UTF-8"?>
<svg width="131px" height="28px" viewBox="0 0 131 28" version="1.1" xmlns="http://www.w3.org/2000/svg" xmlns:xlink="http://www.w3.org/1999/xlink">
    <!-- Generator: Sketch 64 (93537) - https://sketch.com -->
    <title>Group 10</title>
    <desc>Created with Sketch.</desc>
    <defs>
        <polygon id="path-1" points="0 28 130.310761 28 130.310761 0.675684211 0 0.675684211"></polygon>
    </defs>
    <g id="Page-1" stroke="none" stroke-width="1" fill="none" fill-rule="evenodd">
        <g id="Desktop-HD-Copy-21" transform="translate(-120.000000, -17.000000)">
            <g id="Group-10" transform="translate(120.000000, 17.000000)">
                <polygon id="Fill-1" fill="#27262b" points="41.2262603 22 41.2262603 5.23646072 35 5.23646072 35 3 50 3 50 5.23646072 43.7737397 5.23646072 43.7737397 22"></polygon>
                <g id="Group-9">
                    <path d="M59.7690477,11.2907053 L63.8263261,11.2907053 C64.109167,11.2907053 65.5724966,11.2907053 66.2662011,10.8839684 C66.6257068,10.6806 67.5240989,10.0196526 67.5240989,8.49438947 C67.5240989,5.52049474 64.8534852,5.52049474 63.8263261,5.52049474 L59.7690477,5.52049474 L59.7690477,11.2907053 Z M57.2778148,3.38512632 L63.9037352,3.38512632 C64.8534852,3.38512632 66.8050875,3.38512632 68.1657011,4.24870526 C69.5531102,5.11302105 70.2207636,6.51154737 70.2207636,7.98596842 C70.2207636,9.28207368 69.7324909,10.4263895 68.9107636,11.2398632 C68.1150875,12.0282842 67.2926159,12.2824947 66.7284227,12.4350211 C68.4999,12.8926 69.2963205,13.6802842 69.5531102,15.9689158 C69.8091557,18.1286 69.9892807,19.7054421 70.708292,21.7391263 L67.9610136,21.7391263 C67.5494057,20.5181789 67.2926159,18.2811263 67.1132352,16.8833368 C66.8050875,14.2144947 66.1634852,13.4518632 63.0559568,13.4518632 L59.8204057,13.4518632 L59.8204057,21.7391263 L57.2778148,21.7391263 L57.2778148,3.38512632 Z" id="Fill-2" fill="#27262b"></path>
                    <mask id="mask-2" fill="white">
                        <use xlink:href="#path-1"></use>
                    </mask>
                    <g id="Clip-5"></g>
                    <polygon id="Fill-4" fill="#27262b" mask="url(#mask-2)" points="79.5936648 21.7390526 82.1615625 21.7390526 82.1615625 3.38505263 79.5936648 3.38505263"></polygon>
                    <path d="M99.3407239,20.1370842 C104.630593,20.1370842 105.041457,14.5444526 105.041457,12.6382421 C105.041457,7.90918947 102.987139,5.06276842 99.3920818,5.06276842 C94.2562864,5.06276842 93.8201159,10.7312947 93.8201159,12.7399263 C93.8201159,15.7646632 94.9239398,20.1370842 99.3407239,20.1370842 L99.3407239,20.1370842 Z M108.970712,21.7389789 L105.889235,21.7389789 C105.528985,21.7389789 103.680843,21.7640316 102.448252,21.8664526 C101.18961,21.9931895 99.7002295,22.1199263 99.0839341,22.1199263 C94.6678943,22.1199263 91.0981443,19.1968737 91.0981443,12.6890842 C91.0981443,10.5028737 91.4829568,7.55403158 93.4092523,5.44445263 C94.976042,3.74087368 97.2864057,2.95318947 99.6235648,2.95318947 C105.786519,2.95318947 107.661457,7.80824211 107.661457,12.2057158 C107.661457,13.9851895 107.455281,17.6207684 104.297139,20.0869789 C104.913434,19.9595053 105.914542,19.7303474 107.609355,19.7303474 L108.970712,19.7303474 L108.970712,21.7389789 Z" id="Fill-6" fill="#27262b" mask="url(#mask-2)"></path>
                    <path d="M118.832556,16.3752105 C118.88317,17.6462632 119.037244,20.0107895 123.300698,20.0107895 C127.152545,20.0107895 127.640073,17.6462632 127.640073,16.7303684 C127.640073,14.6716316 125.971312,14.2656316 123.377363,13.629 C120.552676,12.943 119.294034,12.6386842 118.344284,12.0020526 C116.829596,10.9859474 116.418732,9.61247368 116.418732,8.393 C116.418732,4.65573684 119.987738,3.02952632 123.480079,3.02952632 C124.71267,3.02952632 127.203159,3.23215789 128.693284,4.83405263 C129.720443,5.95184211 129.771056,7.19784211 129.823159,7.96047368 L127.152545,7.96047368 C127.023778,5.67331579 125.072176,5.16415789 123.24934,5.16415789 C120.680698,5.16415789 119.13996,6.30847368 119.13996,8.13805263 C119.13996,9.765 120.218477,10.325 122.478227,10.8592105 C126.895755,11.977 127.383284,12.0786842 128.462545,12.7912105 C130.182664,13.909 130.310687,15.6884737 130.310687,16.4518421 C130.310687,19.7057368 127.742789,22.1712105 122.992551,22.1712105 C121.579835,22.1712105 118.703789,21.9427895 117.239715,20.0866842 C116.187249,18.739 116.161198,17.2645789 116.161198,16.3752105 L118.832556,16.3752105 Z" id="Fill-7" fill="#27262b" mask="url(#mask-2)"></path>
                    <path d="M21.5768909,14.8058105 L21.4942716,14.8824421 C21.6111295,14.2767579 21.6781182,13.6533895 21.6781182,13.0123368 C21.6781182,12.6107579 21.6468568,12.2165474 21.5992205,11.8267579 C22.225192,11.8532842 22.6420102,12.0036 22.7908739,12.2666526 C22.9925841,12.6218105 22.7707773,13.4846526 21.5768909,14.8058105 L21.5768909,14.8058105 Z M16.7462659,20.2274947 L13.2591352,14.5037053 C16.2349193,12.9290737 18.7656011,12.1170737 20.4805102,11.8908632 C20.5288909,12.2592842 20.5616409,12.6321263 20.5616409,13.0123368 C20.5616409,15.9972842 19.0491864,18.6359158 16.7462659,20.2274947 L16.7462659,20.2274947 Z M11.6729932,21.8117053 C7.85538523,21.8117053 4.60197045,19.4118105 3.34630568,16.0599158 C4.73966932,14.6134947 6.94508409,12.8811789 9.91863523,11.1606526 L11.7049989,14.0940211 C10.4106295,14.8316 9.20408977,15.6185474 8.12259545,16.4416 C7.87845909,16.6272842 7.83231136,16.9743368 8.01987955,17.2160211 C8.13003864,17.3582316 8.29527727,17.4319158 8.46349318,17.4319158 C8.58183977,17.4319158 8.70093068,17.3950737 8.80290227,17.3177053 C9.85090227,16.5204421 11.0224591,15.7570737 12.2818455,15.0393895 L15.79205,20.8029684 C14.5587148,21.4440211 13.1593966,21.8117053 11.6729932,21.8117053 L11.6729932,21.8117053 Z M1.64553864,19.2607579 C1.40512386,18.8378105 1.70508409,18.0317053 2.51936818,16.9986526 C2.97637955,18.0258105 3.60607273,18.9579158 4.3704875,19.7662316 C2.86696477,19.9180211 1.82715227,19.5798105 1.64553864,19.2607579 L1.64553864,19.2607579 Z M1.15503295,13.9798105 C1.06869205,13.8280211 1.13047045,13.3829684 1.68870909,12.6291789 C1.68349886,12.7573895 1.66935682,12.8833895 1.66935682,13.0123368 C1.66935682,13.4249684 1.70285114,13.8287579 1.75197614,14.2281263 C1.44531705,14.1876 1.22276591,14.0991789 1.15503295,13.9798105 L1.15503295,13.9798105 Z M6.63619205,5.77212632 L7.27928295,6.82802105 C5.9588625,7.58181053 4.73148182,8.38791579 3.67603864,9.19917895 C4.35039091,7.81907368 5.37233977,6.63644211 6.63619205,5.77212632 L6.63619205,5.77212632 Z M11.6729932,4.21444211 C14.0027091,4.21444211 16.1188057,5.11338947 17.7049477,6.56865263 C15.4414761,7.18096842 12.8155216,8.30023158 10.3131239,9.66633684 L8.83639659,7.24212632 C9.05076023,7.12865263 9.26735682,7.00781053 9.4794875,6.90170526 C9.75414091,6.76391579 9.86504432,6.4316 9.7251125,6.15970526 C9.58666932,5.88781053 9.25098182,5.77875789 8.97483977,5.91654737 C8.73889091,6.03444211 8.49847614,6.16781053 8.25880568,6.29454737 L7.59487386,5.20402105 C8.81778864,4.57549474 10.2029648,4.21444211 11.6729932,4.21444211 L11.6729932,4.21444211 Z M22.4849591,7.65991579 C22.700067,8.03865263 22.4723057,8.92654737 21.2880955,10.3007579 C20.9717602,9.19623158 20.4663682,8.17275789 19.8076466,7.26202105 C21.2732091,7.05423158 22.229658,7.20823158 22.4849591,7.65991579 L22.4849591,7.65991579 Z M2.78583409,13.0123368 C2.78583409,12.4081263 2.8476125,11.8171789 2.96595909,11.2468632 C4.21343636,10.0900211 5.92164659,8.87570526 7.85538523,7.77412632 L9.34253295,10.2138105 C6.89521477,11.6307579 4.62206705,13.2650737 2.98307841,14.8448632 C2.8558,14.2531789 2.78583409,13.6408632 2.78583409,13.0123368 L2.78583409,13.0123368 Z M10.8899705,10.6139158 C13.9171125,8.96265263 16.5743284,7.96202105 18.5839875,7.49265263 C19.3677545,8.45202105 19.9453455,9.57865263 20.2668909,10.8069684 C18.1187886,11.0980211 15.3342943,12.1494947 12.6822886,13.5561263 L10.8899705,10.6139158 Z M23.7636977,11.7243368 C23.486067,11.2358105 22.9769534,10.9491789 22.3130216,10.8143368 C23.570175,9.28981053 23.9698739,8.01875789 23.457783,7.1176 C22.8414875,6.03296842 21.1623057,5.85317895 18.987408,6.27023158 C17.1601068,4.32938947 14.563925,3.10917895 11.6729932,3.10917895 C9.99083409,3.10917895 8.406925,3.52475789 7.01505,4.25202105 L4.99943636,0.942863158 C4.83940795,0.681284211 4.49702159,0.598757895 4.23204432,0.754968421 C3.96855568,0.912652632 3.88370341,1.2516 4.04224318,1.51391579 L6.05487955,4.81865263 C4.03852159,6.17665263 2.55807273,8.24938947 1.9633625,10.6654947 C1.92093636,10.7074947 1.87255568,10.7494947 1.83087386,10.7914947 C0.229101136,12.3734947 -0.325415909,13.6290737 0.182209091,14.5213895 C0.453885227,15.0003368 0.984584091,15.2773895 1.76016364,15.3437053 C1.77653864,15.3451789 1.79291364,15.3459158 1.80928864,15.3459158 C1.85990227,15.3459158 1.90605,15.3319158 1.95294205,15.3186526 C1.99090227,15.4741263 2.02811818,15.6288632 2.07352159,15.7813895 C0.708442045,17.3280211 0.0809818182,18.7611789 0.671970455,19.8016 C1.12005,20.5914947 2.37869205,20.9098105 3.67901591,20.9098105 C4.02289091,20.9098105 4.36899886,20.8877053 4.70394205,20.8457053 L5.42741932,20.7418105 C7.13935114,22.0998105 9.30903864,22.9169684 11.6729932,22.9169684 C13.3730159,22.9169684 14.9703227,22.4947579 16.3718739,21.7549684 L17.1541523,23.0392842 L15.9922716,23.7171789 L18.3703682,25.8584421 L20.7484648,27.9997053 L20.0041466,24.9042316 L19.2605727,21.8087579 L18.1165557,22.4763368 L17.3268341,21.1809684 C18.8623625,20.1376 20.0860216,18.6816 20.8400159,16.9736 C20.8794648,16.9522316 20.9218909,16.9352842 20.9568739,16.9028632 L22.3755443,15.5772842 C24.1916807,13.5708632 24.1336239,12.3749684 23.7636977,11.7243368 L23.7636977,11.7243368 Z" id="Fill-8" fill="#27262b" mask="url(#mask-2)"></path>
                </g>
            </g>
        </g>
    </g>
</svg>